<?xml version="1.0" encoding="UTF-8"?>
<svg width="840px" height="382px" viewBox="0 0 840 382" version="1.1" xmlns="http://www.w3.org/2000/svg" xmlns:xlink="http://www.w3.org/1999/xlink">
    <!-- Generator: Sketch 50.2 (55047) - http://www.bohemiancoding.com/sketch -->
    <title>written-logo</title>
    <desc>Created with Sketch.</desc>
    <defs></defs>
    <g id="written-logo" stroke="none" stroke-width="1" fill="none" fill-rule="evenodd">
        <path d="M125.359,380.239 C118.961,378.559 112.801,374.958 107.602,369.919 C99.039,361.52 97.199,354.72 99.121,339.36 C100.641,327.759 102.398,314.559 104.078,303.118 C104.961,297.2 106,290.157 106.398,287.52 C107.039,282.958 108.801,271.36 110.398,261.52 C110.801,259.118 111.52,254.638 112,251.68 C112.398,248.72 113.359,243.118 114.078,239.278 C114.719,235.438 115.68,229.997 116.078,227.118 C116.48,224.239 117.52,217.997 118.398,213.118 C119.281,208.317 120.559,201.118 121.281,197.118 C121.922,193.2 122.801,188.317 123.281,186.317 C123.68,184.317 124.559,179.68 125.199,175.919 C125.84,172.157 126.801,167.36 127.199,165.118 C129.281,154.399 130.48,147.997 131.199,145.118 C133.039,136.958 134.641,127.841 134.238,127.52 C133.762,127.04 118.559,149.04 96.078,182.72 C61.281,234.958 36.238,275.438 30.32,289.118 C27.84,294.72 26.801,294.958 19.84,291.52 C14.559,288.88 9.52,284.079 6,278.317 C3.121,273.598 0,263.36 0,258.72 C0,256.798 3.121,248.958 9.68,234.477 C23.359,204.399 24.238,202.477 28.398,192.72 C30,188.958 31.84,184.88 32.398,183.52 C33.039,182.239 35.762,175.919 38.398,169.52 C41.121,163.118 43.84,156.88 44.398,155.52 C46.48,150.798 60.719,116.157 64.238,107.118 C79.441,68.157 88.719,40.559 91.199,26.72 C91.602,24.559 92.16,21.841 92.398,20.72 C92.641,19.598 92.801,17.278 92.719,15.52 C92.719,13.759 92.559,10.317 92.559,7.919 L92.398,3.52 L94.961,3.598 C100.719,3.919 114.398,10.798 122.961,17.759 C127.68,21.52 128,21.997 128,25.118 C128,27.919 124.719,42.399 122.398,49.919 C119.602,58.958 108.559,91.841 106.559,97.118 C97.281,122.079 94.559,129.36 91.52,136.88 C89.68,141.68 88.398,145.52 88.719,145.52 C88.961,145.438 92.961,139.841 97.602,132.958 C124.398,93.04 149.602,59.997 154.961,57.759 C160.801,55.36 174.078,57.2 180.719,61.36 C184.48,63.68 190.32,68.798 192.078,71.2 C193.68,73.52 193.68,73.598 192.238,76.157 C186.879,85.36 178.238,115.919 169.84,155.52 C169.199,158.638 168.398,162.399 168,163.919 C166.801,169.278 162.719,189.919 160.559,201.52 C159.84,205.278 159.039,208.958 158.801,209.759 C158.48,210.477 158.398,211.118 158.641,211.118 C158.961,211.118 160.48,207.36 163.602,199.118 C165.922,192.88 176.719,164.958 182.719,149.759 C187.68,137.118 204.078,97.841 208,89.118 C212,80.239 212.48,79.04 215.199,73.118 C221.199,59.841 234.879,33.438 239.199,26.72 C245.281,17.36 255.68,7.118 262.078,4.157 C265.68,2.477 268.32,1.919 273.281,1.68 C279.039,1.36 280.238,1.598 284.879,3.759 C289.602,5.919 296.801,11.278 296.801,12.638 C296.801,12.958 292.879,17.2 288.16,21.997 C276.48,33.759 266.238,49.278 254.641,72.477 C246.16,89.438 239.281,103.841 236.16,111.118 C235.281,113.118 233.359,117.438 231.762,120.72 C228.719,127.278 227.281,130.477 222.801,140.72 C221.199,144.477 219.199,148.958 218.398,150.72 C217.602,152.477 214.559,159.52 211.68,166.317 C208.719,173.118 206,179.438 205.602,180.317 C205.199,181.2 203.762,184.638 202.398,187.919 C201.039,191.2 199.359,195.04 198.801,196.317 C198.238,197.68 194.641,206.317 190.801,215.52 C184.801,230.239 181.68,237.598 179.199,243.52 C178.879,244.399 176.719,249.598 174.559,255.118 C149.281,318.157 134,360.958 131.762,374.798 C131.281,377.997 130.48,380.798 130,380.958 C129.602,381.118 127.441,380.798 125.359,380.239 Z" id="Fill-1" fill="#141414"></path>
        <path d="M198.398,319.598 C190,315.438 183.602,309.68 180.48,303.36 C177.281,296.958 177.281,293.52 180.719,283.759 C185.281,270.559 198.961,235.278 205.199,220.72 C214.641,198.72 218.961,188.798 221.922,182.317 C223.762,178.399 226.398,172.638 227.84,169.52 C232.48,159.118 250.48,123.997 256.078,114.317 C261.359,105.118 261.762,104.72 265.52,103.278 C267.68,102.477 273.762,101.118 279.121,100.239 C294.879,97.52 312.879,99.118 325.199,104.317 C337.84,109.68 346.398,118.477 350,129.759 C350.961,132.958 350.961,133.36 349.359,135.36 C345.199,140.72 329.68,164.079 324.16,173.278 C317.039,185.04 305.762,206.638 301.602,216.317 C300,220.079 298.238,224.239 297.602,225.52 C297.039,226.88 296.078,229.36 295.52,231.118 C294.961,232.88 294.238,234.72 293.922,235.118 C293.602,235.598 293.121,237.2 292.879,238.72 L292.32,241.52 L293.922,239.52 C340.398,181.118 371.437,143.438 374,142.157 C377.84,140.157 387.602,141.68 393.199,142.157 C396.238,142.399 399.281,143.438 402.961,145.52 C406,147.118 408.559,148.798 408.801,149.118 C409.039,149.52 406.961,153.919 404.16,158.88 C398.559,168.798 389.359,186.72 384.801,196.72 C378.32,210.88 368.238,239.438 367.039,247.04 L366.559,250.317 L371.281,244.638 C373.84,241.52 378,236.477 380.48,233.438 C382.961,230.399 388,224.317 391.602,219.919 C395.199,215.52 400.238,209.438 402.719,206.399 C405.199,203.36 409.359,198.317 411.922,195.2 C418.961,186.638 419.762,185.2 426.801,168.317 C430.398,159.759 433.84,151.68 434.398,150.317 C434.961,149.04 438.398,141.118 442,132.72 C448.961,116.72 456.559,99.52 462.559,86.559 C464.48,82.239 465.922,78.399 465.602,77.919 C465.281,77.438 461.52,77.118 456.559,77.118 C446.961,77.118 445.52,76.638 446.32,73.68 C447.039,70.638 454.559,59.919 458.48,56.317 L462,53.118 L469.52,53.118 C478,53.118 477.68,53.278 480.961,45.52 C481.922,43.36 484.078,38.477 485.84,34.72 C487.52,30.958 490.16,25.2 491.68,21.919 C493.121,18.638 494.961,14.88 495.68,13.52 L499.52,6 C509.228,7.49266667 516.054667,9.19866667 520,11.118 C526.801,14.477 537.199,25.52 537.199,28.157 C537.199,29.04 534.16,34.638 530.398,40.638 C526.641,46.559 523.602,51.68 523.602,51.997 C523.602,52.559 553.441,51.68 555.762,51.04 C556.641,50.798 560.719,43.36 566.719,31.2 C571.922,20.477 576.641,11.438 577.121,11.118 C578.48,10.317 588.879,12.88 593.922,15.36 C598.801,17.68 608.078,26.399 608.801,29.278 C609.121,30.559 607.922,33.52 604.879,39.04 C602.398,43.438 600.559,47.118 600.719,47.278 C600.801,47.438 604.16,47.2 608.078,46.72 C650.32,41.919 678.961,35.68 698.559,27.04 C700.801,25.997 704.398,35.841 704.398,43.118 C704.398,51.759 700.48,62.079 695.68,66.157 C691.84,69.36 684.961,70.88 664,73.118 C650.48,74.559 612.32,76.88 592.801,77.36 L584.801,77.52 L582.641,81.919 C579.84,87.598 567.441,114.079 565.359,118.72 C564.48,120.72 562.32,125.598 560.559,129.52 C558.801,133.52 554.961,142.477 552,149.52 C549.039,156.559 546.16,163.438 545.602,164.72 C542.32,172.079 540.801,175.919 538,183.118 C536.32,187.598 534.398,192.399 533.762,193.919 C531.441,199.278 523.121,221.2 517.84,235.919 C514.078,246.399 505.602,271.919 502,283.2 L499.52,291.36 L494.879,293.04 C489.121,295.118 485.52,295.118 477.68,293.118 C471.281,291.438 458.961,285.438 458.238,283.759 C458,283.2 459.281,278.88 461.039,274.157 C462.801,269.36 464.48,264.638 464.719,263.52 C463.68,263.68 456.559,273.438 448.32,284.559 C431.441,307.52 433.762,305.919 422.961,302.239 C408.641,297.36 398.238,287.438 394.078,274.72 C392.238,269.118 391.922,264.239 393.281,260.399 C393.762,258.958 394,257.68 393.762,257.438 C393.52,257.118 378.641,277.04 369.602,289.919 C360.16,303.36 358.559,305.118 356.48,304.638 C352.719,303.759 344.078,300.157 339.68,297.68 C328.641,291.52 319.602,277.438 319.602,266.559 C319.602,263.919 325.281,244.88 329.441,233.36 C330.641,230.157 331.441,227.52 331.199,227.52 C331.039,227.52 320,242.477 306.719,260.798 C293.441,279.118 282.078,294.239 281.441,294.477 C279.922,295.118 274.879,293.438 267.121,289.841 C258.398,285.759 251.602,279.2 248,271.2 C243.922,262.399 243.762,258.72 246.801,248.88 C254.398,224.079 266.078,199.997 292.48,154.559 C297.281,146.399 302.32,137.52 303.68,134.958 C305.121,132.399 306.559,129.997 306.879,129.598 C307.281,129.118 307.602,128.399 307.602,127.919 C307.602,126.399 302.719,121.919 299.762,120.638 C296.398,119.278 290.719,119.2 289.039,120.559 C285.52,123.278 263.121,166.88 249.84,196.72 C229.039,243.52 216,284.798 212.879,313.52 L212,322.317 L208.398,322.559 C205.52,322.72 203.441,322.079 198.398,319.598 Z M453.441,235.36 C458.961,228.638 467.359,218.477 472,212.72 C476.641,207.04 484.641,197.278 489.68,191.118 C497.602,181.438 499.359,178.72 502.719,171.118 C504.879,166.317 509.121,156.559 512.238,149.52 C520,131.841 543.039,81.118 544.16,79.36 C544.32,78.958 536.559,78.72 526.801,78.72 L509.039,78.72 L500.801,95.759 C484.961,128.477 469.199,166.317 457.602,199.598 C451.281,217.598 442.32,247.52 443.199,247.52 C443.281,247.52 447.922,241.997 453.441,235.36 Z" id="Fill-2" fill="#141414"></path>
        <path d="M387.264271,123.485185 C388.004656,121.66809 389.665707,117.560279 391.023208,114.399713 C392.317534,111.23494 394.351474,106.391038 395.52253,103.630905 C396.632723,100.870772 398.050317,97.7093646 398.604258,96.5652681 L400.686653,91.8731475 L403.664292,91.5075395 C410.631307,91.5075395 413.828762,94.6135741 418.388177,97.0355254 C423.627884,99.8612754 430.591818,106.660237 430.591818,108.878606 C430.591818,109.621428 428.250476,114.330731 425.352111,119.378215 C422.457598,124.359241 420.116256,128.667269 420.116256,128.933944 C420.116256,129.406725 384.736484,130.011582 387.264271,123.485185 Z" id="Fill-2" fill="#141414" transform="translate(408.863406, 110.355222) rotate(7.000000) translate(-408.863406, -110.355222) "></path>
        <path d="M557.84,303.438 C556.16,302.079 549.039,295.841 541.922,289.438 C530,278.798 529.039,277.68 527.762,273.68 C526.078,268.477 526,260.157 527.52,253.997 C528.078,251.52 529.039,247.36 529.602,244.72 C533.039,227.997 541.762,199.598 548.719,182.559 C558.238,159.118 572.961,133.278 587.441,114.317 C595.68,103.598 599.121,100.88 606.398,99.52 C612.32,98.399 617.602,99.68 627.602,104.638 C644.961,113.278 652,118.157 654.879,123.68 C656.559,127.04 656.801,128.559 656.801,136.239 C656.801,150.477 652.641,164.72 642.398,185.52 C631.922,206.798 618.719,225.2 608.238,233.118 C603.121,236.958 602.801,237.118 597.602,237.118 C591.68,237.118 584.559,235.04 579.84,231.919 C578.16,230.798 576.719,229.919 576.559,229.919 C576.398,229.919 575.762,231.438 575.199,233.36 C574.641,235.2 573.922,237.598 573.52,238.72 C572.078,242.958 569.359,253.68 569.039,256.477 C568.559,259.997 570,264.88 572.238,267.36 C578.398,274.079 594.961,261.68 637.602,218.157 C654.879,200.559 659.121,195.841 660.32,192.638 C663.922,183.52 682,145.52 697.602,114.317 L704.398,100.72 L709.922,99.841 C716.801,98.72 724.078,100.317 730.32,104.239 C734.961,107.2 744,116.72 744,118.559 C744,119.2 740.641,124.88 736.559,131.04 C723.359,150.958 704.16,184.317 706,184.317 C706.16,184.317 709.922,179.278 714.398,173.118 C735.199,144.399 759.762,116.798 774.238,105.68 C781.359,100.157 782,99.919 790.398,99.919 C797.441,99.919 798.398,100.157 803.441,102.638 C808.961,105.438 818.48,114.399 819.602,117.919 C820,119.2 818.719,121.759 814.16,128.559 C800.16,149.68 790.398,166.477 780.879,185.919 C769.762,208.638 766.641,216.88 756.801,248.72 C756.398,250.079 755.359,255.04 754.398,259.841 C753.52,264.559 752.559,268.798 752.32,269.2 C751.281,270.958 749.922,286.239 749.68,298.239 L749.602,306.079 L746.641,305.52 C740.879,304.477 731.281,300.239 726.078,296.399 C717.602,290.317 712.398,282.079 710.32,271.919 C709.441,267.278 709.52,266.72 712.238,257.919 C719.359,235.2 728.16,210.958 733.84,198.72 C734.961,196.317 737.84,189.841 740.238,184.317 C742.641,178.798 746.641,170.079 749.121,164.958 C751.602,159.759 753.602,155.278 753.602,154.958 C753.52,154.079 750,158.317 741.281,169.52 C716.398,201.52 688.641,251.118 678.641,281.52 C674.719,293.36 673.602,297.841 673.602,301.919 C673.602,304.157 673.199,305.36 672.398,305.68 C670.641,306.317 658.398,301.759 652.961,298.559 C643.762,292.958 636.559,282.72 634.32,271.759 C633.441,267.36 633.441,266.399 635.039,261.36 C636,258.317 636.801,255.598 636.801,255.2 C636.801,254.88 633.199,257.919 628.719,261.997 C596,292.399 580.559,302.638 563.441,305.438 C561.441,305.759 560.32,305.36 557.84,303.438 Z M594.961,204.559 C598.641,202.88 602.961,196.157 610,181.52 C616.32,168.239 616.719,167.2 620.719,157.118 C625.441,144.88 627.441,136.317 625.52,136.317 C623.52,136.317 614.16,148.798 605.84,162.72 C601.359,170.239 592.961,186.638 588.398,197.04 C585.52,203.438 585.441,203.841 586.879,204.88 C588.801,206.317 591.602,206.157 594.961,204.559 Z" id="Fill-3" fill="#141414"></path>
    </g>
</svg>